<svg xmlns="http://www.w3.org/2000/svg" viewBox="0 0 275.36 107.3"><defs><style>.cls-1{fill:#ffd812;}.cls-2{fill:#39af79;}.cls-2,.cls-3,.cls-4,.cls-5{stroke:#17694f;stroke-miterlimit:10;}.cls-3{fill:#6ac39b;}.cls-4{fill:#c3dfa1;}.cls-5{fill:none;}.cls-6{font-size:26.82px;fill:#f3743c;font-family:MyriadPro-Regular, Myriad Pro;}.cls-7{font-size:41px;fill:#fff;font-family:Bauhaus93, "Bauhaus 93";}</style></defs><g id="Layer_2" data-name="Layer 2"><g id="Layer_1-2" data-name="Layer 1"><circle class="cls-1" cx="53.65" cy="53.65" r="53.15"/><path class="cls-2" d="M29.74,101.13c18.62-33.31,6.9-56,6.9-56-14,1-24.8,10.63-24.8,10.63C29.55,72.07,22.92,97,22.92,97S27.81,100.42,29.74,101.13Z"/><path class="cls-3" d="M66.35,31.86c-16.36-4.78-32.54,2-32.54,2,13.46,44.64-4.07,67.32-4.07,67.32s10.44,5.67,26,5.67C55.77,106.8,79.05,51.88,66.35,31.86Z"/><path class="cls-4" d="M103.14,34.25C88.37,15.38,63.57,17.51,63.57,17.51,77,83.41,35.91,103.76,35.91,103.76s24.82,9.41,46.23-5.24C82.14,98.52,118.13,75.62,103.14,34.25Z"/><circle class="cls-5" cx="53.65" cy="53.65" r="53.15"/><path class="cls-5" d="M43,105.38A52.28,52.28,0,0,0,54,94.89"/><path class="cls-5" d="M106.09,45.14C98,33.06,87,27.55,78.14,24.83a8.57,8.57,0,0,1-7.45,6.73C73.22,58.77,66.07,77,59,88a81.15,81.15,0,0,1-5,6.85"/><path class="cls-5" d="M84,97.25a12.29,12.29,0,0,1-4.34-.6"/><path class="cls-5" d="M79.7,96.65a11.46,11.46,0,0,1-1.77-.75c-6.86-3.57-9-13-4.81-21.11S86.3,63,93.16,66.6c4.41,2.29,6.88,7,7,12.27"/><path class="cls-5" d="M66.11,36.73a71.65,71.65,0,0,0-12.3-1.62,51.44,51.44,0,0,0-7.05.51c0,.16,0,.31,0,.46a7.5,7.5,0,0,1-5.43,7.2c6,28.33.6,46-7,59.66"/><path class="cls-5" d="M37.53,49.72a47.39,47.39,0,0,0-14.66,4.66,4.08,4.08,0,0,1,.57,2.08,4.16,4.16,0,0,1-1.69,3.33C29.5,71.46,30.3,85,27.21,99.44"/><text class="cls-6" transform="translate(77.76 87.68) rotate(16.02)">$</text><text class="cls-7" transform="translate(115.75 53.65)">BuyMore<tspan x="0" y="33">Dollars</tspan></text></g></g></svg>